<?xml version="1.0" encoding="utf-8"?>
<!-- Generator: Adobe Illustrator 16.0.0, SVG Export Plug-In . SVG Version: 6.00 Build 0)  -->
<!DOCTYPE svg PUBLIC "-//W3C//DTD SVG 1.1//EN" "http://www.w3.org/Graphics/SVG/1.1/DTD/svg11.dtd">
<svg version="1.1" id="Layer_1" xmlns="http://www.w3.org/2000/svg" xmlns:xlink="http://www.w3.org/1999/xlink" x="0px" y="0px"
	 width="512px" height="512px" viewBox="0 0 512 512" enable-background="new 0 0 512 512" xml:space="preserve">
<path d="M256,0C114.615,0,0,114.615,0,256s114.615,256,256,256s256-114.615,256-256S397.385,0,256,0z M139.589,401.104
	c-23.297,0-42.229-17.821-42.229-39.907c0-21.963,18.931-39.985,42.229-39.985c23.384,0,42.292,18.022,42.292,39.985
	C181.881,383.282,162.971,401.104,139.589,401.104z M245.742,401.452c0-37.689-15.461-73.166-43.466-99.704
	c-28.04-26.605-65.275-41.289-104.868-41.289v-57.672c115.441,0,209.41,89.111,209.411,198.665H245.742z M353.645,401.452
	c0-134.088-114.945-243.204-256.164-243.204v-57.7c174.862,0,317.159,135.034,317.159,300.904H353.645z"/>
</svg>
