<?xml version="1.0" encoding="utf-8"?>
<!-- Generator: Adobe Illustrator 16.0.0, SVG Export Plug-In . SVG Version: 6.00 Build 0)  -->
<!DOCTYPE svg PUBLIC "-//W3C//DTD SVG 1.1//EN" "http://www.w3.org/Graphics/SVG/1.1/DTD/svg11.dtd">
<svg version="1.1" id="Layer_1" xmlns="http://www.w3.org/2000/svg" xmlns:xlink="http://www.w3.org/1999/xlink" x="0px" y="0px"
	 width="512px" height="512px" viewBox="0 0 512 512" enable-background="new 0 0 512 512" xml:space="preserve">
<path d="M256,0C114.615,0,0,114.615,0,256s114.615,256,256,256s256-114.615,256-256S397.385,0,256,0z M128,128h256
	c4.569,0,9.002,0.981,13.072,2.831L256,295.415L114.928,130.83C118.998,128.982,123.431,128,128,128z M96,352V160
	c0-0.67,0.028-1.336,0.07-2l93.832,109.471L97.103,360.27C96.381,357.602,96,354.827,96,352z M384,384H128
	c-2.827,0-5.601-0.381-8.27-1.104l91.059-91.059L256,344.586l45.212-52.747l91.058,91.06C389.6,383.619,386.827,384,384,384z
	 M416,352c0,2.827-0.381,5.6-1.103,8.27l-92.8-92.799L415.93,158c0.042,0.664,0.07,1.33,0.07,2V352z"/>
</svg>
